<svg width="90" height="51" viewBox="0 0 90 51" fill="none" xmlns="http://www.w3.org/2000/svg">
<rect y="26" width="90" height="13" fill="#2696FF"/>
<g filter="url(#filter0_d_1_8)">
<rect x="10" y="13" width="70" height="13" fill="#2696FF"/>
</g>
<g filter="url(#filter1_d_1_8)">
<rect x="25" width="40" height="13" fill="#2696FF"/>
</g>
<path d="M31.4862 50.084C30.9342 50.084 30.4382 49.988 29.9982 49.796C29.5662 49.596 29.2262 49.324 28.9782 48.98C28.7302 48.628 28.6022 48.224 28.5942 47.768H29.7582C29.7982 48.16 29.9582 48.492 30.2382 48.764C30.5262 49.028 30.9422 49.16 31.4862 49.16C32.0062 49.16 32.4142 49.032 32.7102 48.776C33.0142 48.512 33.1662 48.176 33.1662 47.768C33.1662 47.448 33.0782 47.188 32.9022 46.988C32.7262 46.788 32.5062 46.636 32.2422 46.532C31.9782 46.428 31.6222 46.316 31.1742 46.196C30.6222 46.052 30.1782 45.908 29.8422 45.764C29.5142 45.62 29.2302 45.396 28.9902 45.092C28.7582 44.78 28.6422 44.364 28.6422 43.844C28.6422 43.388 28.7582 42.984 28.9902 42.632C29.2222 42.28 29.5462 42.008 29.9622 41.816C30.3862 41.624 30.8702 41.528 31.4142 41.528C32.1982 41.528 32.8382 41.724 33.3342 42.116C33.8382 42.508 34.1222 43.028 34.1862 43.676H32.9862C32.9462 43.356 32.7782 43.076 32.4822 42.836C32.1862 42.588 31.7942 42.464 31.3062 42.464C30.8502 42.464 30.4782 42.584 30.1902 42.824C29.9022 43.056 29.7582 43.384 29.7582 43.808C29.7582 44.112 29.8422 44.36 30.0102 44.552C30.1862 44.744 30.3982 44.892 30.6462 44.996C30.9022 45.092 31.2582 45.204 31.7142 45.332C32.2662 45.484 32.7102 45.636 33.0462 45.788C33.3822 45.932 33.6702 46.16 33.9102 46.472C34.1502 46.776 34.2702 47.192 34.2702 47.72C34.2702 48.128 34.1622 48.512 33.9462 48.872C33.7302 49.232 33.4102 49.524 32.9862 49.748C32.5622 49.972 32.0622 50.084 31.4862 50.084ZM41.8771 46.46C41.8771 46.668 41.8651 46.888 41.8411 47.12H36.5851C36.6251 47.768 36.8451 48.276 37.2451 48.644C37.6531 49.004 38.1451 49.184 38.7211 49.184C39.1931 49.184 39.5851 49.076 39.8971 48.86C40.2171 48.636 40.4411 48.34 40.5691 47.972H41.7451C41.5691 48.604 41.2171 49.12 40.6891 49.52C40.1611 49.912 39.5051 50.108 38.7211 50.108C38.0971 50.108 37.5371 49.968 37.0411 49.688C36.5531 49.408 36.1691 49.012 35.8891 48.5C35.6091 47.98 35.4691 47.38 35.4691 46.7C35.4691 46.02 35.6051 45.424 35.8771 44.912C36.1491 44.4 36.5291 44.008 37.0171 43.736C37.5131 43.456 38.0811 43.316 38.7211 43.316C39.3451 43.316 39.8971 43.452 40.3771 43.724C40.8571 43.996 41.2251 44.372 41.4811 44.852C41.7451 45.324 41.8771 45.86 41.8771 46.46ZM40.7491 46.232C40.7491 45.816 40.6571 45.46 40.4731 45.164C40.2891 44.86 40.0371 44.632 39.7171 44.48C39.4051 44.32 39.0571 44.24 38.6731 44.24C38.1211 44.24 37.6491 44.416 37.2571 44.768C36.8731 45.12 36.6531 45.608 36.5971 46.232H40.7491ZM42.9105 46.688C42.9105 46.016 43.0465 45.428 43.3185 44.924C43.5905 44.412 43.9625 44.016 44.4345 43.736C44.9145 43.456 45.4505 43.316 46.0425 43.316C46.5545 43.316 47.0305 43.436 47.4705 43.676C47.9105 43.908 48.2465 44.216 48.4785 44.6V41.12H49.5825V50H48.4785V48.764C48.2625 49.156 47.9425 49.48 47.5185 49.736C47.0945 49.984 46.5985 50.108 46.0305 50.108C45.4465 50.108 44.9145 49.964 44.4345 49.676C43.9625 49.388 43.5905 48.984 43.3185 48.464C43.0465 47.944 42.9105 47.352 42.9105 46.688ZM48.4785 46.7C48.4785 46.204 48.3785 45.772 48.1785 45.404C47.9785 45.036 47.7065 44.756 47.3625 44.564C47.0265 44.364 46.6545 44.264 46.2465 44.264C45.8385 44.264 45.4665 44.36 45.1305 44.552C44.7945 44.744 44.5265 45.024 44.3265 45.392C44.1265 45.76 44.0265 46.192 44.0265 46.688C44.0265 47.192 44.1265 47.632 44.3265 48.008C44.5265 48.376 44.7945 48.66 45.1305 48.86C45.4665 49.052 45.8385 49.148 46.2465 49.148C46.6545 49.148 47.0265 49.052 47.3625 48.86C47.7065 48.66 47.9785 48.376 48.1785 48.008C48.3785 47.632 48.4785 47.196 48.4785 46.7ZM52.5199 44.492C52.7119 44.116 52.9839 43.824 53.3359 43.616C53.6959 43.408 54.1319 43.304 54.6439 43.304V44.432H54.3559C53.1319 44.432 52.5199 45.096 52.5199 46.424V50H51.4279V43.424H52.5199V44.492ZM55.4965 46.688C55.4965 46.016 55.6325 45.428 55.9045 44.924C56.1765 44.412 56.5485 44.016 57.0205 43.736C57.5005 43.456 58.0325 43.316 58.6165 43.316C59.1925 43.316 59.6925 43.44 60.1165 43.688C60.5405 43.936 60.8565 44.248 61.0645 44.624V43.424H62.1685V50H61.0645V48.776C60.8485 49.16 60.5245 49.48 60.0925 49.736C59.6685 49.984 59.1725 50.108 58.6045 50.108C58.0205 50.108 57.4925 49.964 57.0205 49.676C56.5485 49.388 56.1765 48.984 55.9045 48.464C55.6325 47.944 55.4965 47.352 55.4965 46.688ZM61.0645 46.7C61.0645 46.204 60.9645 45.772 60.7645 45.404C60.5645 45.036 60.2925 44.756 59.9485 44.564C59.6125 44.364 59.2405 44.264 58.8325 44.264C58.4245 44.264 58.0525 44.36 57.7165 44.552C57.3805 44.744 57.1125 45.024 56.9125 45.392C56.7125 45.76 56.6125 46.192 56.6125 46.688C56.6125 47.192 56.7125 47.632 56.9125 48.008C57.1125 48.376 57.3805 48.66 57.7165 48.86C58.0525 49.052 58.4245 49.148 58.8325 49.148C59.2405 49.148 59.6125 49.052 59.9485 48.86C60.2925 48.66 60.5645 48.376 60.7645 48.008C60.9645 47.632 61.0645 47.196 61.0645 46.7Z" fill="#1E1E1E"/>
<defs>
<filter id="filter0_d_1_8" x="6" y="13" width="78" height="21" filterUnits="userSpaceOnUse" color-interpolation-filters="sRGB">
<feFlood flood-opacity="0" result="BackgroundImageFix"/>
<feColorMatrix in="SourceAlpha" type="matrix" values="0 0 0 0 0 0 0 0 0 0 0 0 0 0 0 0 0 0 127 0" result="hardAlpha"/>
<feOffset dy="4"/>
<feGaussianBlur stdDeviation="2"/>
<feComposite in2="hardAlpha" operator="out"/>
<feColorMatrix type="matrix" values="0 0 0 0 0 0 0 0 0 0 0 0 0 0 0 0 0 0 0.25 0"/>
<feBlend mode="normal" in2="BackgroundImageFix" result="effect1_dropShadow_1_8"/>
<feBlend mode="normal" in="SourceGraphic" in2="effect1_dropShadow_1_8" result="shape"/>
</filter>
<filter id="filter1_d_1_8" x="21" y="0" width="48" height="21" filterUnits="userSpaceOnUse" color-interpolation-filters="sRGB">
<feFlood flood-opacity="0" result="BackgroundImageFix"/>
<feColorMatrix in="SourceAlpha" type="matrix" values="0 0 0 0 0 0 0 0 0 0 0 0 0 0 0 0 0 0 127 0" result="hardAlpha"/>
<feOffset dy="4"/>
<feGaussianBlur stdDeviation="2"/>
<feComposite in2="hardAlpha" operator="out"/>
<feColorMatrix type="matrix" values="0 0 0 0 0 0 0 0 0 0 0 0 0 0 0 0 0 0 0.25 0"/>
<feBlend mode="normal" in2="BackgroundImageFix" result="effect1_dropShadow_1_8"/>
<feBlend mode="normal" in="SourceGraphic" in2="effect1_dropShadow_1_8" result="shape"/>
</filter>
</defs>
</svg>
